<svg xmlns="http://www.w3.org/2000/svg" version="1.1" xmlns:xlink="http://www.w3.org/1999/xlink" xmlns:svgjs="http://svgjs.dev/svgjs" width="2000" height="1836" viewBox="0 0 2000 1836"><g transform="matrix(1,0,0,1,-0.7665655884935632,0.7433198380566637)"><svg viewBox="0 0 269 247" data-background-color="#89939e" preserveAspectRatio="xMidYMid meet" height="1836" width="2000" xmlns="http://www.w3.org/2000/svg" xmlns:xlink="http://www.w3.org/1999/xlink"><g id="tight-bounds" transform="matrix(1,0,0,1,0.10310307165238441,-0.09999999999999432)"><svg viewBox="0 0 268.79379385669523 247.2" height="247.2" width="268.79379385669523"><g><svg viewBox="0 0 268.79379385669523 247.2" height="247.2" width="268.79379385669523"><g><svg viewBox="0 0 268.79379385669523 247.2" height="247.2" width="268.79379385669523"><g><svg viewBox="0 0 395.52 363.74554113450426" height="247.2" width="268.79379385669523"><g transform="matrix(1,0,0,1,0,224.8093371684986)"><svg viewBox="0 0 395.52 138.93620396600565" height="138.93620396600565" width="395.52"><g id="textblocktransform"><svg viewBox="0 0 395.52 138.93620396600565" height="138.93620396600565" width="395.52" id="textblock"><g><svg viewBox="0 0 395.52 138.93620396600565" height="138.93620396600565" width="395.52"><g transform="matrix(1,0,0,1,0,0)"><svg width="395.52" viewBox="1.2 -38.1 141.19 49.6" height="138.93620396600565" data-palette-color="#000000"><path d="M12 0L12-32.95 1.2-32.95 1.2-36.4 27.7-36.4 27.7-32.95 16.75-32.95 16.75 0 12 0ZM36.65-25.45L36.65-25.45Q39.65-25.45 41.7-24.23 43.75-23 44.77-20.83 45.8-18.65 45.8-15.75L45.8-15.75Q45.8-15.05 45.72-14.33 45.65-13.6 45.55-12.8L45.55-12.8 29.75-12.8Q29.75-8.05 31.85-5.45 33.95-2.85 37.45-2.85L37.45-2.85Q38.9-2.85 40.47-3.3 42.05-3.75 43.75-4.65L43.75-4.65 45.3-2.15Q43.55-0.75 41.35-0.05 39.15 0.65 36.9 0.65L36.9 0.65Q33 0.65 30.42-1.2 27.85-3.05 26.6-6 25.35-8.95 25.35-12.15L25.35-12.15Q25.35-14.65 26.05-17 26.75-19.35 28.17-21.28 29.6-23.2 31.7-24.33 33.8-25.45 36.65-25.45ZM36.25-22.3L36.25-22.3Q34.55-22.3 33.25-21.35 31.95-20.4 31.15-18.93 30.35-17.45 30.05-15.9L30.05-15.9 41.45-15.9Q41.5-18 40.87-19.43 40.25-20.85 39.07-21.58 37.9-22.3 36.25-22.3ZM74.59-27.95L74.59-27.95Q74.59-26.1 73.87-24.38 73.15-22.65 71.77-21.43 70.4-20.2 68.45-19.85L68.45-19.85Q70.95-19.5 72.67-18.13 74.4-16.75 75.32-14.7 76.25-12.65 76.25-10.2L76.25-10.2Q76.25-6.95 75.05-4.93 73.84-2.9 71.8-1.83 69.75-0.75 67.2-0.38 64.65 0 62 0L62 0 52.1 0 52.1-33.1Q52.1-33.15 51.92-33.9 51.75-34.65 51.6-35.45 51.45-36.25 51.4-36.4L51.4-36.4 63.55-36.4Q65.7-36.4 67.67-36.02 69.65-35.65 71.22-34.7 72.8-33.75 73.7-32.13 74.59-30.5 74.59-27.95ZM69.75-27.85L69.75-27.85Q69.75-29.85 68.87-30.95 68-32.05 66.55-32.5 65.09-32.95 63.4-32.95L63.4-32.95 56.75-32.95 56.75-21.35 62.1-21.35Q65.59-21.35 67.67-22.78 69.75-24.2 69.75-27.85ZM71.3-10.95L71.3-10.95Q71.3-13.5 69.97-15.03 68.65-16.55 66.57-17.23 64.5-17.9 62.3-17.9L62.3-17.9 56.75-17.9 56.75-3.45 62.3-3.45Q64.95-3.45 66.97-4.08 69-4.7 70.15-6.35 71.3-8 71.3-10.95ZM82.09-38.1L86.89-38.1 86.89 0 82.74 0 82.74-35.2 82.09-38.1ZM104.34 0.65L104.34 0.65Q100.69 0.65 98.22-1.18 95.74-3 94.52-5.95 93.29-8.9 93.29-12.25L93.29-12.25Q93.29-15.6 94.62-18.63 95.94-21.65 98.49-23.55 101.04-25.45 104.64-25.45L104.64-25.45Q108.34-25.45 110.82-23.65 113.29-21.85 114.52-18.9 115.74-15.95 115.74-12.55L115.74-12.55Q115.74-9.15 114.44-6.13 113.14-3.1 110.59-1.23 108.04 0.65 104.34 0.65ZM104.39-2.5L104.39-2.5Q106.34-2.5 107.67-3.43 108.99-4.35 109.82-5.85 110.64-7.35 110.99-9.08 111.34-10.8 111.34-12.4L111.34-12.4Q111.34-14.05 111.02-15.78 110.69-17.5 109.94-18.98 109.19-20.45 107.87-21.38 106.54-22.3 104.59-22.3L104.59-22.3Q102.64-22.3 101.32-21.38 99.99-20.45 99.19-18.95 98.39-17.45 98.04-15.73 97.69-14 97.69-12.4L97.69-12.4Q97.69-10.85 98.04-9.13 98.39-7.4 99.17-5.9 99.94-4.4 101.24-3.45 102.54-2.5 104.39-2.5ZM128.94-25.45L128.94-25.45Q130.39-25.45 131.71-25.1 133.04-24.75 134.44-24.75L134.44-24.75Q136.34-24.75 138.29-24.98 140.24-25.2 142.39-25.5L142.39-25.5 141.49-21.9 137.49-21.9Q137.14-21.9 136.76-21.93 136.39-21.95 136.04-22L136.04-22Q136.89-20.85 137.31-19.6 137.74-18.35 137.74-17.05L137.74-17.05Q137.74-14.55 136.64-12.55 135.54-10.55 133.41-9.43 131.29-8.3 128.24-8.3L128.24-8.3Q126.99-8.3 126.04-7.65 125.09-7 125.09-5.65L125.09-5.65Q125.09-4.75 125.56-4.38 126.04-4 126.74-3.95 127.44-3.9 128.14-3.9L128.14-3.9 132.99-3.9Q134.29-3.9 135.66-3.73 137.04-3.55 138.19-3.03 139.34-2.5 140.06-1.48 140.79-0.45 140.79 1.3L140.79 1.3Q140.79 4.05 139.69 6 138.59 7.95 136.74 9.18 134.89 10.4 132.59 10.95 130.29 11.5 127.94 11.5L127.94 11.5Q126.54 11.5 124.99 11.18 123.44 10.85 122.06 10.13 120.69 9.4 119.84 8.2 118.99 7 118.99 5.2L118.99 5.2Q118.99 3.3 120.16 1.85 121.34 0.4 122.89-0.6L122.89-0.6 122.89-0.75Q121.79-1.3 121.16-2.27 120.54-3.25 120.54-4.35L120.54-4.35Q120.54-5 121.04-5.58 121.54-6.15 122.31-7.1 123.09-8.05 123.99-9.7L123.99-9.7Q122.24-10.9 121.19-12.78 120.14-14.65 120.14-16.8L120.14-16.8Q120.14-19.25 121.34-21.2 122.54-23.15 124.56-24.3 126.59-25.45 128.94-25.45ZM128.99-22.45L128.99-22.45Q127.14-22.45 125.81-20.83 124.49-19.2 124.49-16.85L124.49-16.85Q124.49-14.45 125.81-12.83 127.14-11.2 128.94-11.2L128.94-11.2Q130.99-11.2 132.21-12.75 133.44-14.3 133.44-16.8L133.44-16.8Q133.44-19.2 132.11-20.83 130.79-22.45 128.99-22.45ZM131.84 0.05L125.84 0.05Q124.89 0.75 124.09 1.98 123.29 3.2 123.29 4.35L123.29 4.35Q123.29 5.55 124.16 6.4 125.04 7.25 126.31 7.68 127.59 8.1 128.69 8.1L128.69 8.1Q130.44 8.1 132.36 7.6 134.29 7.1 135.61 5.93 136.94 4.75 136.94 2.75L136.94 2.75Q136.94 1.45 136.14 0.88 135.34 0.3 134.16 0.18 132.99 0.05 131.84 0.05L131.84 0.05Z" opacity="1" transform="matrix(1,0,0,1,0,0)" fill="#000000" class="wordmark-text-0" data-fill-palette-color="primary" id="text-0"></path></svg></g></svg></g></svg></g></svg></g><g transform="matrix(1,0,0,1,77.34705332885196,0)"><svg viewBox="0 0 240.82589334229607 192.00983388101983" height="192.00983388101983" width="240.82589334229607"><g><svg xmlns="http://www.w3.org/2000/svg" xmlns:xlink="http://www.w3.org/1999/xlink" version="1.1" x="0" y="0" viewBox="13 20.5 74 59" style="enable-background:new 0 0 100 100;" xml:space="preserve" height="192.00983388101983" width="240.82589334229607" class="icon-icon-0" data-fill-palette-color="accent" id="icon-0"><path d="M20.8 79.5h49.7c4.3 0 7.8-3.5 7.8-7.8v-17h0.9c4.3 0 7.8-3.5 7.8-7.8V28.3c0-4.3-3.5-7.8-7.8-7.8H50.5c-4.3 0-7.8 3.5-7.8 7.8v0.9H20.8c-4.3 0-7.8 3.5-7.8 7.8v34.8C13.1 76 16.5 79.5 20.8 79.5zM44.5 28.3c0-3.3 2.7-6 6-6h28.6c3.3 0 6 2.7 6 6V47c0 3.3-2.7 6-6 6h-0.9V36.9c0-4.3-3.5-7.8-7.8-7.8h-26V28.3zM14.8 36.9c0-3.3 2.7-6 6-6h21.9V47c0 4.3 3.5 7.8 7.8 7.8h26v17c0 3.3-2.7 6-6 6H20.8c-3.3 0-6-2.7-6-6V36.9z" fill="#000000" data-fill-palette-color="accent"></path></svg></g></svg></g><g></g></svg></g></svg></g></svg></g><defs></defs></svg><rect width="268.79379385669523" height="247.2" fill="none" stroke="none" visibility="hidden"></rect></g></svg></g></svg>